<svg

   xmlns="http://www.w3.org/2000/svg"
   viewBox="0 0 100 100"
   height="100"
   width="100"
   version="1.1"
   id="svg3336">
  <path
     id="path3520"
     d="m 40.461607,97.511849 c -38.5038504,-8.01989 -52.507295,-54.91671 -24.58501,-82.333938 15.47872,-15.19873936 41.3465,-18.3259634 59.18069,-7.1545094 3.32123,2.0804394 1.29505,2.0265044 -2.87518,-0.07653 -46.21538,-23.3063506 -91.616585,32.5926414 -58.65872,72.2219414 28.06678,33.748157 84.41446,13.56185 84.41446,-30.2411 0,-5.18538 0.97656,-5.25637 1.16094,-0.0844 1.053283,29.54613 -28.86677,53.869357 -58.63718,47.66854 z m 7.46984,-1.51109 c -36.37214,-1.90682 -56.6468104,-42.39793 -36.19123,-72.278531 13.59746,-19.8625724 42.04538,-25.9558834 62.49481,-13.385875 2.86966,1.763945 0.73941,1.802282 -2.49869,0.04497 -38.85544,-21.086807 -82.35656,21.568977 -61.67158,60.473146 21.85208,41.099251 85.35991,25.36976 85.38148,-21.14711 0.001,-2.92431 0.11838,-3.59917 0.62415,-3.59917 1.42521,0 0.3848,12.27452 -1.51538,17.87811 -5.88432,17.35271 -22.20742,30.50441 -39.36122,31.71374 -1.71184,0.12069 -3.5793,0.26219 -4.14991,0.31446 -0.57061,0.0523 -1.97121,0.0461 -3.11243,-0.0137 z m -2.18055,-2.61445 C -7.8197034,88.194999 -5.7425534,8.7031646 48.025587,6.3345946 c 9.50937,-0.418903 25.84279,4.0537364 25.84279,7.0766234 0,0.831389 -0.25765,0.782441 -2.38454,-0.453015 -34.91699,-20.2824334 -76.3489904,16.046045 -60.83137,53.338266 17.55381,42.185651 82.30549,29.50336 82.30549,-16.12038 0,-3.47129 0.0983,-4.0679 0.67055,-4.0679 1.09708,0 0.5831,9.7247 -0.78523,14.85694 -5.54812,20.8095 -25.45932,34.51755 -47.09238,32.42118 z m -0.55605,-2.43555 C -6.9673134,84.506709 -0.92805335,7.0336706 51.600097,8.7828546 c 7.57838,0.252359 21.02331,4.3334414 21.02331,6.3814304 0,0.881334 -0.66949,0.724085 -4.06988,-0.955941 -34.69836,-17.1433364 -71.7367604,18.943136 -54.70147,53.295585 18.66594,37.640761 76.61595,24.5415 76.61595,-17.31858 0,-3.34992 0.11103,-4.07716 0.62249,-4.07716 0.77369,0 0.87672,6.42967 0.17083,10.661 -3.58479,21.48856 -24.31296,36.86897 -46.06648,34.18157 z m -0.58333,-2.51637 c -20.80415,-2.94334 -35.9069404,-22.32212 -33.45205,-42.92321 3.24309,-27.215522 32.87367,-42.7487854 57.2883,-30.032296 4.8066,2.503543 3.32095,2.989331 -1.77012,0.578806 -38.32833,-18.1477344 -73.0474204,29.91441 -43.48514,60.19712 20.19987,20.69213 58.63037,10.39741 63.75868,-17.07959 l 0.28655,-1.53535 -10.48897,-0.10999 c -7.94194,-0.0833 -10.53091,-0.23485 -10.66168,-0.62416 -0.13521,-0.40253 2.16784,-0.51417 10.60724,-0.51417 9.14597,0 10.81576,-0.0925 11.01618,-0.6102 0.20446,-0.52811 -1.22263,-0.62496 -10.60722,-0.71984 -8.22584,-0.0832 -10.88516,-0.23375 -11.01619,-0.6238 -0.13528,-0.40273 2.2182,-0.51417 10.85913,-0.51417 9.47454,0 11.03184,-0.0861 11.03184,-0.61017 0,-0.52106 -1.59097,-0.62619 -10.89351,-0.71984 -16.0337,-0.1614 -16.27634,-1.29045 -0.31125,-1.44827 14.17082,-0.14007 14.52693,-0.66851 0.62249,-0.92373 -16.41751,-0.30135 -16.63521,-1.385 -0.31124,-1.54933 6.65994,-0.067 10.89351,-0.26421 10.89351,-0.50734 0,-0.24313 -4.23357,-0.44029 -10.89351,-0.50734 -16.59908,-0.1671 -16.15073,-1.29359 0.57827,-1.45293 l 11.4718,-0.10926 0.18968,1.7546 c 2.48659,23.00045 -20.63854,43.99044 -44.71279,40.58446 z m -10.58227,-36.36185 c 0,-24.040221 0.0754,-27.35375 0.62249,-27.35375 0.54708,0 0.62249,3.313529 0.62249,27.35375 0,24.04021 -0.0754,27.35374 -0.62249,27.35374 -0.54708,0 -0.62249,-3.31353 -0.62249,-27.35374 z m 2.48995,0.0302 c 0,-25.805807 0.0418,-27.383891 0.72623,-27.383601 1.12773,4.94e-4 1.12773,54.413501 0,54.628841 -0.68578,0.13095 -0.72623,-1.38672 -0.72623,-27.24523 z m 2.77223,27.0322 c -0.79082,-1.26829 -0.25633,-54.416101 0.54724,-54.416101 0.83526,0 0.83893,0.136352 0.73121,27.216731 -0.10452,26.27421 -0.22724,28.88527 -1.27845,27.19938 z m 2.62265,-27.06235 c 0,-24.040221 0.0754,-27.35375 0.62249,-27.35375 0.54708,0 0.62248,3.313529 0.62248,27.35375 0,24.04021 -0.0754,27.35374 -0.62248,27.35374 -0.54708,0 -0.62249,-3.31353 -0.62249,-27.35374 z m 2.48995,0.007 0,-27.360578 10.92809,0 c 9.4372,0 10.92809,0.08418 10.92809,0.617002 0,0.531883 -1.42173,0.617002 -10.30561,0.617002 -8.88387,0 -10.3056,0.08512 -10.3056,0.617002 0,0.531882 1.42173,0.617002 10.3056,0.617002 8.88388,0 10.30561,0.08512 10.30561,0.617002 0,0.531882 -1.42173,0.617001 -10.30561,0.617001 -8.8299,0 -10.3056,0.08732 -10.3056,0.609816 0,0.519411 1.51759,0.626127 10.23665,0.719836 7.74004,0.08319 10.27878,0.23542 10.40936,0.624187 0.1351,0.402219 -2.09373,0.514169 -10.23666,0.514169 -8.9761,0 -10.40935,0.08495 -10.40935,0.617001 0,0.531584 1.40142,0.617002 10.12288,0.617002 8.61528,0 10.15845,0.09189 10.36174,0.617002 0.2084,0.538294 -1.08293,0.617002 -10.12287,0.617002 -8.93378,0 -10.36175,0.08503 -10.36175,0.617002 0,0.531657 1.40636,0.617002 10.16728,0.617002 8.76091,0 10.16727,0.08534 10.16727,0.617001 0,0.531657 -1.40636,0.617002 -10.16727,0.617002 l -10.16728,0 0,5.141685 0,5.14168 7.67733,0 c 6.54763,0 7.67733,0.0908 7.67733,0.617 0,0.52621 -1.1297,0.617 -7.67733,0.617 -6.49553,0 -7.67733,0.0936 -7.67733,0.60772 0,0.50978 1.2206,0.6258 7.57358,0.71984 6.40515,0.0948 7.57359,0.2073 7.57359,0.72911 0,0.52182 -1.16844,0.6343 -7.57359,0.72912 -6.35298,0.094 -7.57358,0.21006 -7.57358,0.71984 0,0.51417 1.1818,0.60772 7.67733,0.60772 6.54763,0 7.67733,0.0908 7.67733,0.617 0,0.52621 -1.1297,0.617 -7.67733,0.617 -6.54763,0 -7.67733,0.0908 -7.67733,0.617 0,0.52621 1.1297,0.617 7.67733,0.617 6.54763,0 7.67733,0.0908 7.67733,0.61701 0,0.52621 -1.1297,0.617 -7.67733,0.617 -6.54763,0 -7.67733,0.0908 -7.67733,0.617 0,0.52621 1.1297,0.617 7.67733,0.617 6.54763,0 7.67733,0.0908 7.67733,0.617 0,0.52622 -1.1297,0.61701 -7.67733,0.61701 l -7.67733,0 0,5.13449 0,5.1345 10.23665,0.11002 c 7.74004,0.0832 10.27878,0.23542 10.40936,0.62418 0.1351,0.40222 -2.09373,0.51417 -10.23666,0.51417 -8.92158,0 -10.40935,0.0872 -10.40935,0.60982 0,0.51928 1.50957,0.62615 10.16769,0.71983 13.7196,0.14846 13.7196,0.89426 0,1.04271 -8.65812,0.0937 -10.16769,0.20056 -10.16769,0.71984 0,0.52215 1.45156,0.60981 10.09811,0.60981 10.26672,0 10.76476,0.0513 10.37094,1.06856 -0.18315,0.47308 -2.04948,0.57678 -10.38076,0.57678 -7.94141,0 -10.11978,0.11218 -9.98477,0.51417 0.13042,0.3883 2.62794,0.54114 10.20186,0.62432 8.53471,0.0937 10.02917,0.20099 10.02917,0.71983 0,0.5221 -1.46056,0.60969 -10.16727,0.60969 -8.70768,0 -10.16728,0.0875 -10.16728,0.60982 0,0.51927 1.50957,0.62614 10.16769,0.71983 14.14215,0.15303 13.77085,0.8985 -0.51915,1.04235 l -10.89351,0.10967 0,-27.36058 z"
     style="fill:#00ffe2" />
</svg>
