<?xml version="1.0" encoding="UTF-8" standalone="no"?>
<svg
   xmlns:osb="http://www.openswatchbook.org/uri/2009/osb"
   xmlns:dc="http://purl.org/dc/elements/1.1/"
   xmlns:cc="http://creativecommons.org/ns#"
   xmlns:rdf="http://www.w3.org/1999/02/22-rdf-syntax-ns#"
   xmlns:svg="http://www.w3.org/2000/svg"
   xmlns="http://www.w3.org/2000/svg"
   xmlns:xlink="http://www.w3.org/1999/xlink"
   viewBox="0 0 114 114"
   height="114"
   width="114"
   version="1.1"
   id="svg3336">
  <metadata
     id="metadata3342">
    <rdf:RDF>
      <cc:Work
         rdf:about="">
        <dc:format>image/svg+xml</dc:format>
        <dc:type
           rdf:resource="http://purl.org/dc/dcmitype/StillImage" />
        <dc:title></dc:title>
      </cc:Work>
    </rdf:RDF>
  </metadata>
  <defs
     id="defs3340">
    <linearGradient
       osb:paint="gradient"
       id="linearGradient5818">
      <stop
         id="stop5820"
         offset="0"
         style="stop-color:#0085ea;stop-opacity:0.90697676;" />
      <stop
         id="stop5822"
         offset="1"
         style="stop-color:#000000;stop-opacity:0;" />
    </linearGradient>
    <linearGradient
       osb:paint="solid"
       id="linearGradient5810">
      <stop
         id="stop5812"
         offset="0"
         style="stop-color:#00f0ff;stop-opacity:0.59649122;" />
    </linearGradient>
    <linearGradient
       osb:paint="gradient"
       id="linearGradient5772">
      <stop
         id="stop5774"
         offset="0"
         style="stop-color:#ff0000;stop-opacity:1;" />
      <stop
         id="stop5776"
         offset="1"
         style="stop-color:#ff0000;stop-opacity:0;" />
    </linearGradient>
    <linearGradient
       gradientTransform="matrix(1.1485191,0,0,1.1658381,-0.46622919,-0.67385985)"
       gradientUnits="userSpaceOnUse"
       y2="49.287025"
       x2="99.315605"
       y1="49.287025"
       x1="0.41586006"
       id="linearGradient5826"
       xlink:href="#linearGradient5810" />
  </defs>
  <path
     id="path3528"
     d="M 45.648379,112.28576 C 1.4259698,102.93586 -14.657257,48.261766 17.412018,16.297722 35.189618,-1.4215487 64.899256,-5.067382 85.38216,7.9567203 89.196662,10.382178 86.869554,10.319301 82.079978,7.8675057 29.000734,-19.303937 -23.143424,45.865238 14.70931,92.066583 c 32.235241,39.344877 96.95161,15.810917 96.95161,-35.256231 0,-6.045307 1.12162,-6.128077 1.33336,-0.09842 C 114.204,91.157951 79.840248,119.5149 45.648379,112.28575 Z m 8.579243,-1.7617 C 12.45353,108.30103 -10.832312,61.09495 12.661304,26.25901 28.278246,3.1024725 60.95122,-4.0013466 84.437783,10.65325 c 3.29586,2.056471 0.849224,2.101168 -2.869791,0.05241 -44.626217,-24.583786 -94.588077,25.145947 -70.830986,70.501907 25.09753,47.915073 98.037484,29.577043 98.062254,-24.654099 10e-4,-3.409274 0.13598,-4.196056 0.71685,-4.196056 1.63688,0 0.44195,14.310109 -1.74043,20.842976 -6.75827,20.230466 -25.50566,35.563202 -45.207126,36.973092 -1.966077,0.14062 -4.110882,0.30568 -4.766248,0.36661 -0.655358,0.0609 -2.263963,0.0537 -3.574684,-0.016 z m -2.504404,-3.04801 C -9.8036373,101.42382 -7.4179901,8.7492171 54.335751,5.9878484 65.257433,5.4994739 84.016679,10.713848 84.016679,14.238046 c 0,0.96926 -0.295932,0.912199 -2.738678,-0.528147 -40.102841,-23.6460288 -87.6882803,18.707091 -69.866,62.183787 20.16089,49.181624 94.529429,34.396124 94.529429,-18.793756 0,-4.046965 0.11292,-4.742515 0.77015,-4.742515 1.26,0 0.6697,11.337424 -0.90186,17.320785 -6.372129,24.260508 -29.240511,40.24188 -54.086502,37.79785 z M 51.084582,104.6366 C -8.8246466,97.123875 -1.8884356,6.8028573 58.441132,8.842123 c 8.703916,0.2942036 24.145675,5.052089 24.145675,7.43971 0,1.02749 -0.768924,0.844169 -4.674338,-1.114466 C 38.060747,-4.8189905 -4.4785551,37.251988 15.086793,77.30138 c 21.438198,43.88303 87.994887,28.61142 87.994887,-20.190659 0,-3.905465 0.12752,-4.753306 0.71493,-4.753306 0.8886,0 1.00693,7.495956 0.19621,12.429004 C 99.875622,89.8386 76.06892,107.76967 51.084577,104.6366 Z m -0.669967,-2.9337 C 26.520657,98.271457 9.174814,75.678929 11.994306,51.661396 15.71906,19.932505 49.750337,1.8232392 77.791003,16.648606 c 5.520475,2.918724 3.814188,3.485079 -2.033,0.674792 C 31.737172,-3.8339162 -8.1383616,52.198749 25.814491,87.50349 49.014409,111.62715 93.152573,99.625192 99.042531,67.591454 l 0.329137,-1.789968 -12.046796,-0.128237 c -9.121469,-0.09712 -12.094948,-0.273783 -12.245138,-0.727674 -0.155298,-0.469288 2.489807,-0.599436 12.182626,-0.599436 10.504307,0 12.422096,-0.107799 12.652295,-0.711398 0.234825,-0.615688 -1.404226,-0.728596 -12.182607,-0.83921 -9.447525,-0.09696 -12.501814,-0.272539 -12.65229,-0.727254 -0.155377,-0.46952 2.54763,-0.599436 12.471902,-0.599436 10.881694,0 12.67028,-0.100401 12.67028,-0.711363 0,-0.607471 -1.827249,-0.730032 -12.511405,-0.839212 -18.415009,-0.188186 -18.693683,-1.504461 -0.357444,-1.688449 16.275449,-0.163311 16.684439,-0.779374 0.714929,-1.076923 -18.855821,-0.351336 -19.105846,-1.61469 -0.357479,-1.806266 7.649069,-0.07817 12.511399,-0.308021 12.511399,-0.591478 0,-0.283464 -4.86233,-0.513309 -12.511399,-0.591476 -19.06436,-0.194814 -18.54942,-1.508123 0.664166,-1.69388 l 13.175573,-0.127358 0.21784,2.045584 c 2.85591,26.81479 -23.703758,51.28571 -51.353492,47.31488 z M 38.260688,59.31088 c 0,-28.027004 0.0866,-31.890044 0.714932,-31.890044 0.628333,0 0.714943,3.86304 0.714943,31.890044 0,28.027001 -0.0866,31.890035 -0.714943,31.890035 -0.62833,0 -0.714932,-3.863034 -0.714932,-31.890035 z m 2.859746,0.03528 c 0,-30.085391 0.04801,-31.925182 0.834099,-31.924843 1.295222,5.77e-4 1.295222,63.437336 0,63.688382 -0.787627,0.152702 -0.834099,-1.616691 -0.834099,-31.76353 z m 3.183972,31.515171 C 43.396133,89.38271 44.009995,27.420965 44.93292,27.420965 c 0.95931,0 0.963516,0.158966 0.839798,31.730308 -0.120034,30.631469 -0.260999,33.675549 -1.468312,31.710061 z m 3.012149,-31.550315 c 0,-28.027004 0.0866,-31.890044 0.714941,-31.890044 0.628335,0 0.714942,3.86304 0.714942,31.890044 0,28.026998 -0.0866,31.890035 -0.714942,31.890035 -0.628329,0 -0.714941,-3.863037 -0.714941,-31.890035 z m 2.859754,0.0078 0,-31.898 12.551119,0 c 10.838806,0 12.551135,0.09811 12.551135,0.719322 0,0.62009 -1.632886,0.719324 -11.836192,0.719324 -10.203303,0 -11.83619,0.09922 -11.83619,0.719324 0,0.620091 1.632887,0.719326 11.83619,0.719326 10.203306,0 11.836192,0.09922 11.836192,0.719324 0,0.620089 -1.632886,0.719321 -11.836192,0.719321 -10.141317,0 -11.83619,0.101823 -11.83619,0.710948 0,0.605549 1.742983,0.729965 11.757002,0.839215 8.889569,0.09698 11.805363,0.274462 11.955336,0.727702 0.155156,0.468919 -2.404681,0.599438 -11.757,0.599438 -10.309213,0 -11.955338,0.09904 -11.955338,0.719324 0,0.619739 1.609571,0.71932 11.626324,0.71932 9.894823,0 11.66717,0.107127 11.900664,0.719324 0.239346,0.627564 -1.243764,0.719327 -11.626319,0.719327 -10.260616,0 -11.900669,0.09911 -11.900669,0.719326 0,0.619825 1.615236,0.719321 11.677315,0.719321 10.062085,0 11.677305,0.09949 11.677305,0.719326 0,0.619828 -1.61522,0.719322 -11.677305,0.719322 l -11.677315,0 0,5.99437 0,5.994367 8.817563,0 c 7.520084,0 8.817559,0.105833 8.817559,0.719327 0,0.613478 -1.297475,0.719324 -8.817559,0.719324 -7.460238,0 -8.817563,0.109062 -8.817563,0.708505 0,0.594319 1.401894,0.729573 8.698412,0.83921 7.356427,0.110531 8.698403,0.241694 8.698403,0.85003 0,0.60835 -1.341976,0.73949 -8.698403,0.850031 -7.296518,0.109637 -8.698412,0.244891 -8.698412,0.83921 0,0.599445 1.357325,0.708508 8.817563,0.708508 7.520084,0 8.817559,0.105833 8.817559,0.719321 0,0.613483 -1.297475,0.719327 -8.817559,0.719327 -7.52008,0 -8.817563,0.10585 -8.817563,0.719324 0,0.613477 1.297483,0.719323 8.817563,0.719323 7.520084,0 8.817559,0.105833 8.817559,0.719326 0,0.613478 -1.297475,0.719319 -8.817559,0.719319 -7.52008,0 -8.817563,0.105834 -8.817563,0.719329 0,0.613476 1.297483,0.719324 8.817563,0.719324 7.520084,0 8.817559,0.105834 8.817559,0.719319 0,0.613485 -1.297475,0.719331 -8.817559,0.719331 l -8.817563,0 0,5.985989 0,5.985988 11.757002,0.128269 c 8.889569,0.09698 11.805363,0.274464 11.955336,0.727699 0.155156,0.468924 -2.404681,0.599443 -11.757,0.599443 -10.246604,0 -11.955338,0.101615 -11.955338,0.710945 0,0.605393 1.733771,0.72999 11.6778,0.839211 15.757211,0.173065 15.757211,1.04255 0,1.215626 -9.944029,0.109238 -11.6778,0.233788 -11.6778,0.839217 0,0.608748 1.667145,0.710943 11.597873,0.710943 11.791525,0 12.363546,0.05983 11.911233,1.245762 -0.210363,0.551541 -2.35388,0.67244 -11.9225,0.67244 -9.120861,0 -11.622774,0.130762 -11.4677,0.599435 0.149762,0.452687 3.018243,0.630875 11.717034,0.727847 9.802276,0.109301 11.51868,0.234338 11.51868,0.839212 0,0.608689 -1.677481,0.710796 -11.677305,0.710796 -10.000924,0 -11.677315,0.102046 -11.677315,0.710951 0,0.605393 1.733771,0.729984 11.6778,0.839208 16.242517,0.178353 15.816081,1.047507 -0.596267,1.215214 l -12.511405,0.127854 0,-31.898005 z"
     style="fill:#000000;fill-opacity:1;stroke:url(#linearGradient5826);stroke-width:1.15714598;stroke-opacity:1" />
</svg>
